<?xml version="1.0" encoding="UTF-8"?>
<svg id="Layer_1" data-name="Layer 1" xmlns="http://www.w3.org/2000/svg" viewBox="0 0 600 400">
  <defs>
    <style>
      .cls-1 {
        font-family: JetBrainsMono-Bold, 'JetBrains Mono';
        font-size: 57.6px;
        font-weight: 700;
      }

      .cls-1, .cls-2 {
        fill: #08cb00;
      }

      .cls-3 {
        fill: #41b649;
      }

      .cls-4 {
        fill: #c7c7c7;
      }
    </style>
  </defs>
  <rect class="cls-4" x="1.51" y="1.7" width="598.65" height="397.3"/>
  <g>
    <path class="cls-3" d="M89.26,174.19h0c-12.68,0-22.95,10.49-22.95,23.43v28.24c0,3.26,2.59,5.9,5.79,5.9h0c3.2,0,5.79-2.64,5.79-5.9v-28.98c0-6.38,5.07-11.55,11.32-11.55h0c6.05,0,10.97,4.89,11.19,11.01.3-5.51,2.46-10.52,5.85-14.37-4.16-4.77-10.22-7.78-16.97-7.78Z"/>
    <path class="cls-3" d="M111.93,225.93c0,1.11-.3,2.15-.82,3.04.55-.9.87-1.97.87-3.11v-28.49c0-.37,0-.74-.03-1.11-.01.21-.02.43-.02.65v29.01Z"/>
    <path class="cls-2" d="M123.31,174.19h0c-6.78,0-12.87,3-17.07,7.78-3.39,3.85-5.55,8.86-5.85,14.37-.02.43-.04.87-.04,1.31v28.28c0,3.27,2.59,5.92,5.79,5.92h0c2.11,0,3.95-1.15,4.97-2.88.52-.89.82-1.93.82-3.04v-29.01c0-.22,0-.43.02-.65.33-6.09,5.26-10.92,11.3-10.92h0c6.18,0,11.2,5.12,11.2,11.45v29.13c0,3.27,2.59,5.92,5.79,5.92h0c3.2,0,5.79-2.65,5.79-5.92v-28.52c0-12.82-10.17-23.22-22.71-23.22Z"/>
  </g>
  <text class="cls-1" transform="translate(172.91 226.01) scale(1.33 1)"><tspan x="0" y="0">MERIDIAN</tspan></text>
</svg>