<?xml version="1.0" encoding="UTF-8"?>
<svg id="Layer_1" data-name="Layer 1" xmlns="http://www.w3.org/2000/svg" viewBox="0 0 600 400">
  <defs>
    <style>
      .cls-1 {
        font-family: Arial-Black, 'Arial Black';
        font-size: 73px;
        font-weight: 800;
      }

      .cls-1, .cls-2 {
        fill: #f8bc04;
      }

      .cls-3 {
        fill: #c7c7c7;
      }

      .cls-4 {
        fill: #051427;
      }
    </style>
  </defs>
  <rect class="cls-3" x="1.19" y="1.92" width="598.65" height="397.3"/>
  <g>
    <g>
      <path class="cls-2" d="M130.76,199.02c.89,0,1.71-.47,2.15-1.24l4.81-8.39c.44-.76.44-1.69,0-2.45l-4.79-8.4c-.44-.77-1.26-1.25-2.14-1.25h-9.56c-.89,0-1.71.46-2.15,1.23l-2.21,3.85-4.01-2.3,1.99-3.47c.44-.76.44-1.69,0-2.45l-4.79-8.4c-.44-.77-1.26-1.25-2.14-1.25h-9.56c-.89,0-1.71.46-2.15,1.23l-4.81,8.39c-.44.76-.44,1.69,0,2.45l1.93,3.38-4.04,2.26-1.77-3.11c-.44-.77-1.26-1.25-2.14-1.25h-9.56c-.89,0-1.71.46-2.15,1.23l-4.81,8.39c-.44.76-.44,1.69,0,2.45l4.79,8.4c.44.77,1.26,1.25,2.14,1.25h3.64s0,4.89,0,4.89h-4.03c-.89,0-1.71.47-2.15,1.24l-4.81,8.39c-.44.76-.44,1.69,0,2.45l4.79,8.4c.44.77,1.26,1.25,2.14,1.25h9.56c.89,0,1.71-.46,2.15-1.23l2.01-3.51,4.05,2.38-1.95,3.4c-.44.76-.44,1.69,0,2.45l4.79,8.4c.44.77,1.26,1.25,2.14,1.25h9.56c.89,0,1.71-.46,2.15-1.23l4.81-8.39c.44-.76.44-1.69,0-2.45l-2.14-3.74,4.1-2.4,2.07,3.64c.44.77,1.26,1.25,2.14,1.25h9.56c.89,0,1.71-.46,2.15-1.23l4.81-8.39c.44-.76.44-1.69,0-2.45l-4.79-8.4c-.44-.77-1.26-1.25-2.14-1.25h-3.97s.11-5.25.11-5.25h4.22ZM113.33,208.77l-5.25,8.86c-.12-.02-.25-.03-.37-.03h-9.56c-.22,0-.43.02-.64.08l-4.83-8.83,1.48-.87-.75-1.32-1.45.85-4.77-8.73c.12-.13.24-.28.33-.45l4.81-8.39c.08-.14.14-.28.19-.43h9.83s0,1.47,0,1.47h1.52s0-1.48,0-1.48h10.49s4.72,8.25,4.72,8.25c.12.22.28.41.45.58l-5.41,9.13-1.35-.8-.75,1.32,1.33.78ZM116.11,183.68l-1.85,3.22c-.19.33-.3.7-.32,1.07h-10.09s0-1.76,0-1.76h4.04c.89,0,1.71-.47,2.15-1.24l2.06-3.6,4.01,2.3ZM94.08,181.27l2.11,3.7c.44.77,1.26,1.25,2.14,1.25h4s0,1.78,0,1.78h-9.81c-.05-.16-.12-.33-.22-.49l-2.27-3.97,4.04-2.26ZM80.95,199.58h4.41c.17,0,.33-.01.5-.05l4.79,8.75-1.55.92-1.99-3.48c-.44-.77-1.26-1.25-2.14-1.25h-4.01s0-4.89,0-4.89ZM89.84,220.13l2.04-3.56c.44-.76.44-1.69,0-2.45l-2.05-3.6,1.53-.9,4.86,8.89c-.08.1-.16.21-.23.33l-2.11,3.68-4.05-2.38ZM111.75,222.18l-1.9-3.34c-.11-.2-.25-.38-.41-.53l5.2-8.77,1.3.77-2.05,3.58c-.44.76-.44,1.69,0,2.45l1.97,3.44-4.1,2.4ZM124.91,204.26h-4.07c-.89,0-1.71.47-2.15,1.24l-2,3.5-1.28-.75,5.48-9.25c.1.01.21.02.31.02h3.82s-.11,5.25-.11,5.25Z"/>
      <path class="cls-4" d="M114.8,203.09c.44-.76.44-1.69,0-2.45l-4.79-8.4c-.44-.77-1.26-1.25-2.14-1.25h-4.02s-1.52,0-1.52,0h-4.02c-.89,0-1.71.47-2.15,1.24l-4.81,8.39c-.44.76-.44,1.69,0,2.45l2.05,3.59.75,1.32,1.99,3.49c.44.77,1.26,1.25,2.14,1.25h9.56c.89,0,1.71-.46,2.15-1.23l2-3.5.75-1.32,2.05-3.58Z"/>
    </g>
    <text class="cls-1" transform="translate(161.37 227.61) scale(.86 1)"><tspan x="0" y="0">HYPERION</tspan></text>
  </g>
</svg>